<?xml version="1.0" encoding="UTF-8"?>
<svg xmlns="http://www.w3.org/2000/svg" xmlns:xlink="http://www.w3.org/1999/xlink" width="32px" height="32px" viewBox="0 0 32 32" version="1.1">
<g id="surface1">
<path style=" stroke:none;fill-rule:nonzero;fill:rgb(0%,0%,0%);fill-opacity:1;" d="M 14.332031 0.0859375 C 10.273438 0.492188 6.324219 2.605469 3.710938 5.761719 C 1.695312 8.191406 0.457031 11.078125 0.0976562 14.183594 C -0.0351562 15.351562 0 17.386719 0.167969 18.414062 C 0.230469 18.761719 0.28125 19.15625 0.28125 19.28125 C 0.28125 19.535156 0.808594 21.132812 1.226562 22.148438 C 1.761719 23.449219 2.554688 24.789062 3.457031 25.914062 C 4.132812 26.769531 5.167969 27.875 5.492188 28.089844 C 5.625 28.183594 5.867188 28.367188 6.015625 28.507812 C 6.507812 28.949219 7.972656 29.859375 8.980469 30.351562 C 13.535156 32.585938 18.921875 32.515625 23.375 30.167969 C 24.5625 29.542969 25.542969 28.867188 26.585938 27.964844 C 26.859375 27.726562 27.113281 27.535156 27.15625 27.535156 C 27.246094 27.535156 28.0625 26.683594 28.332031 26.304688 C 30.0625 23.84375 30.914062 22.105469 31.480469 19.894531 C 32.113281 17.414062 32.125 14.589844 31.515625 12.191406 C 31.027344 10.269531 30.289062 8.621094 29.226562 7.050781 C 27.078125 3.878906 24.019531 1.660156 20.339844 0.605469 C 18.507812 0.078125 16.289062 -0.113281 14.332031 0.0859375 Z M 18.589844 0.902344 C 21.445312 1.414062 23.957031 2.640625 26.191406 4.605469 L 26.902344 5.230469 L 26.550781 5.605469 C 25.375 6.851562 25.445312 9.191406 26.691406 10.304688 C 27.0625 10.632812 27.238281 11.007812 27.296875 11.613281 L 27.339844 12.019531 L 26.832031 12.589844 C 26.394531 13.089844 26.238281 13.210938 25.71875 13.464844 C 25.378906 13.632812 24.902344 13.902344 24.65625 14.0625 C 24.167969 14.394531 23.945312 14.472656 23.203125 14.585938 C 22.9375 14.621094 22.578125 14.703125 22.414062 14.761719 C 22.140625 14.859375 22.113281 14.859375 21.984375 14.730469 C 21.84375 14.589844 21.84375 14.589844 22.226562 14.261719 C 22.710938 13.84375 22.878906 13.515625 22.808594 13.132812 C 22.789062 12.984375 22.789062 12.808594 22.816406 12.746094 C 22.984375 12.402344 23.019531 12.15625 22.945312 11.867188 C 22.875 11.605469 22.878906 11.515625 23 11.226562 C 23.230469 10.65625 23.113281 9.660156 22.773438 9.28125 C 22.550781 9.035156 22.535156 8.984375 22.464844 8.378906 C 22.386719 7.691406 22.097656 6.984375 21.851562 6.894531 C 21.753906 6.859375 21.597656 6.832031 21.492188 6.832031 C 21.386719 6.824219 21.175781 6.730469 21.019531 6.621094 C 20.738281 6.414062 20.175781 6.125 20.0625 6.125 C 20.027344 6.125 20 6.042969 20 5.929688 C 19.992188 5.691406 19.578125 5.351562 19.28125 5.351562 C 19.167969 5.351562 18.964844 5.269531 18.839844 5.167969 C 18.648438 5.027344 18.550781 5 18.378906 5.035156 C 18.261719 5.0625 18.015625 5.078125 17.832031 5.070312 C 17.050781 5.050781 16.519531 5.054688 16.167969 5.097656 C 15.910156 5.132812 15.703125 5.113281 15.464844 5.035156 C 15.28125 4.972656 15.078125 4.9375 15.015625 4.964844 C 14.945312 4.992188 14.632812 5.042969 14.324219 5.078125 C 14.007812 5.113281 13.632812 5.191406 13.484375 5.253906 C 13.339844 5.308594 13.148438 5.34375 13.0625 5.324219 C 12.957031 5.296875 12.84375 5.351562 12.667969 5.515625 C 12.535156 5.648438 12.273438 5.851562 12.078125 5.984375 C 11.886719 6.113281 11.5625 6.367188 11.367188 6.542969 C 10.550781 7.28125 10.269531 7.464844 9.9375 7.464844 C 9.675781 7.464844 9.589844 7.5 9.402344 7.710938 C 9.089844 8.035156 8.859375 8.535156 8.886719 8.816406 C 8.914062 9.121094 9.195312 9.304688 9.816406 9.4375 C 10.078125 9.484375 10.304688 9.5625 10.324219 9.589844 C 10.34375 9.625 10.28125 9.746094 10.183594 9.867188 C 10.085938 9.984375 10 10.105469 10 10.140625 C 10 10.238281 9.613281 10.789062 9.410156 10.980469 C 9.195312 11.175781 9.183594 11.28125 9.332031 11.410156 C 9.386719 11.457031 9.4375 11.570312 9.4375 11.667969 C 9.4375 11.761719 9.472656 11.902344 9.515625 11.980469 C 9.570312 12.089844 9.5625 12.15625 9.480469 12.246094 C 9.316406 12.429688 9.339844 12.492188 9.632812 12.683594 C 10.675781 13.378906 10.621094 13.316406 10.464844 13.769531 C 10.410156 13.929688 10.386719 14.089844 10.421875 14.148438 C 10.457031 14.21875 10.414062 14.34375 10.308594 14.5 C 10.21875 14.640625 10.140625 14.804688 10.140625 14.875 C 10.140625 15.105469 10.050781 15.210938 9.804688 15.253906 C 9.464844 15.316406 9.386719 15.378906 9.191406 15.773438 C 9.097656 15.949219 8.980469 16.140625 8.914062 16.191406 C 8.859375 16.238281 8.773438 16.394531 8.726562 16.535156 C 8.675781 16.675781 8.605469 16.816406 8.5625 16.84375 C 8.449219 16.921875 8.296875 16.914062 8.34375 16.832031 C 8.367188 16.796875 8.308594 16.726562 8.210938 16.675781 C 8.113281 16.632812 8.027344 16.554688 8.027344 16.507812 C 8.027344 16.421875 7.675781 16.125 7.570312 16.125 C 7.550781 16.125 7.535156 16.195312 7.550781 16.28125 C 7.5625 16.410156 7.535156 16.449219 7.394531 16.464844 C 7.195312 16.484375 6.761719 16.148438 6.761719 15.980469 C 6.761719 15.921875 6.71875 15.832031 6.675781 15.78125 C 6.597656 15.710938 6.613281 15.675781 6.71875 15.597656 C 6.875 15.480469 6.824219 15.28125 6.625 15.28125 C 6.554688 15.28125 6.472656 15.230469 6.449219 15.167969 C 6.414062 15.085938 6.351562 15.0625 6.195312 15.097656 C 6.019531 15.132812 5.984375 15.113281 5.984375 15 C 5.984375 14.910156 5.9375 14.859375 5.84375 14.859375 C 5.769531 14.859375 5.703125 14.808594 5.703125 14.753906 C 5.703125 14.660156 5.730469 14.65625 5.851562 14.71875 C 6.078125 14.84375 6.089844 14.753906 5.867188 14.589844 C 5.730469 14.5 5.597656 14.464844 5.4375 14.484375 C 5.21875 14.519531 5.210938 14.527344 5.316406 14.648438 C 5.429688 14.773438 5.421875 14.773438 5.113281 14.769531 C 4.824219 14.753906 4.789062 14.730469 4.789062 14.589844 C 4.789062 14.507812 4.816406 14.4375 4.851562 14.4375 C 4.894531 14.4375 5.007812 14.359375 5.105469 14.269531 L 5.289062 14.097656 L 4.550781 14.125 C 3.921875 14.140625 3.789062 14.125 3.648438 14.019531 C 3.554688 13.949219 3.308594 13.875 3.097656 13.851562 C 2.769531 13.816406 2.683594 13.773438 2.5 13.554688 C 2.273438 13.289062 2.183594 13.246094 2.183594 13.414062 C 2.183594 13.472656 2.21875 13.519531 2.253906 13.519531 C 2.367188 13.519531 2.339844 13.710938 2.21875 13.761719 C 2.160156 13.78125 2.070312 13.753906 2.027344 13.691406 C 1.980469 13.632812 1.875 13.519531 1.804688 13.445312 C 1.691406 13.339844 1.683594 13.289062 1.753906 13.21875 C 1.824219 13.15625 1.859375 13.160156 1.929688 13.253906 C 2.035156 13.394531 2.148438 13.429688 2.0625 13.289062 C 2.035156 13.246094 2.007812 13.175781 2.007812 13.132812 C 2.007812 13.097656 1.894531 13 1.746094 12.921875 C 1.605469 12.84375 1.410156 12.691406 1.296875 12.585938 L 1.105469 12.394531 L 1.261719 11.808594 C 1.480469 11.019531 1.984375 9.746094 2.410156 8.945312 C 4.667969 4.660156 8.703125 1.703125 13.378906 0.914062 C 14.535156 0.71875 14.589844 0.71875 16.269531 0.738281 C 17.421875 0.753906 17.972656 0.789062 18.589844 0.902344 Z M 15.332031 5.148438 C 15.414062 5.230469 15.648438 5.238281 17.359375 5.191406 C 18.613281 5.160156 18.625 5.160156 18.824219 5.324219 C 18.945312 5.429688 19.121094 5.492188 19.253906 5.492188 C 19.578125 5.492188 19.859375 5.726562 19.859375 5.992188 C 19.859375 6.125 19.902344 6.21875 19.984375 6.238281 C 20.324219 6.351562 20.683594 6.519531 20.816406 6.632812 C 20.894531 6.703125 20.992188 6.761719 21.035156 6.761719 C 21.078125 6.761719 21.148438 6.808594 21.195312 6.867188 C 21.246094 6.921875 21.378906 6.972656 21.492188 6.972656 C 21.605469 6.972656 21.753906 7 21.824219 7.042969 C 22.015625 7.140625 22.253906 7.761719 22.316406 8.332031 C 22.386719 8.914062 22.492188 9.226562 22.660156 9.351562 C 22.878906 9.515625 23.097656 10.71875 22.957031 10.949219 C 22.929688 10.984375 22.875 11.15625 22.816406 11.316406 C 22.746094 11.554688 22.738281 11.675781 22.808594 11.902344 C 22.859375 12.070312 22.867188 12.226562 22.832031 12.304688 C 22.675781 12.605469 22.625 12.894531 22.675781 13.160156 C 22.71875 13.414062 22.703125 13.492188 22.519531 13.769531 C 22.402344 13.945312 22.210938 14.15625 22.089844 14.238281 C 21.726562 14.492188 21.675781 14.589844 21.839844 14.761719 C 21.914062 14.839844 21.957031 14.949219 21.9375 15.007812 C 21.878906 15.15625 21.414062 15.378906 20.386719 15.753906 C 19.472656 16.085938 19.472656 16.085938 18.554688 16.085938 C 17.632812 16.085938 16.550781 15.914062 16.550781 15.769531 C 16.550781 15.730469 16.515625 15.703125 16.464844 15.703125 C 16.421875 15.703125 16.324219 15.648438 16.246094 15.585938 C 16.113281 15.464844 16.105469 15.464844 16.140625 15.621094 C 16.167969 15.71875 16.15625 15.761719 16.113281 15.730469 C 16.070312 15.703125 15.9375 15.675781 15.804688 15.667969 C 15.585938 15.65625 14.761719 15.289062 14.816406 15.230469 C 14.886719 15.160156 15.261719 15.160156 15.386719 15.230469 C 15.519531 15.304688 15.519531 15.296875 15.410156 15.160156 C 15.238281 14.972656 15.246094 14.929688 15.480469 14.929688 C 15.660156 14.921875 15.660156 14.921875 15.535156 14.824219 C 15.464844 14.769531 15.378906 14.738281 15.34375 14.753906 C 15.316406 14.773438 15.28125 14.753906 15.269531 14.71875 C 15.253906 14.675781 15.121094 14.625 14.972656 14.597656 C 14.789062 14.570312 14.710938 14.578125 14.738281 14.625 C 14.773438 14.683594 14.65625 14.691406 14.367188 14.667969 C 13.972656 14.632812 13.945312 14.640625 13.945312 14.78125 C 13.945312 14.894531 13.984375 14.929688 14.113281 14.929688 C 14.210938 14.929688 14.308594 14.957031 14.332031 15 C 14.386719 15.097656 14.351562 15.089844 13.886719 14.9375 C 13.667969 14.859375 13.160156 14.738281 12.761719 14.660156 C 12.367188 14.585938 11.964844 14.472656 11.867188 14.410156 C 11.761719 14.339844 11.625 14.308594 11.519531 14.339844 C 11.34375 14.378906 11.210938 14.269531 11.339844 14.191406 C 11.378906 14.160156 11.402344 14.089844 11.378906 14.027344 C 11.316406 13.804688 11.246094 13.34375 11.246094 13.148438 C 11.246094 13.042969 11.226562 12.957031 11.195312 12.957031 C 11.054688 12.957031 11.175781 12.71875 11.351562 12.660156 C 11.457031 12.621094 11.550781 12.5625 11.550781 12.527344 C 11.550781 12.492188 11.464844 12.5 11.367188 12.535156 C 11.125 12.625 11.125 12.625 11.125 12.429688 C 11.125 12.28125 11.160156 12.253906 11.359375 12.246094 C 11.480469 12.238281 11.660156 12.210938 11.761719 12.183594 C 11.910156 12.132812 11.894531 12.125 11.640625 12.121094 C 11.421875 12.113281 11.339844 12.085938 11.339844 12.007812 C 11.339844 11.859375 11.746094 11.5 12.027344 11.394531 C 12.148438 11.34375 12.253906 11.28125 12.253906 11.253906 C 12.253906 11.167969 12.160156 11.183594 11.859375 11.304688 C 11.613281 11.402344 11.597656 11.402344 11.71875 11.304688 C 11.851562 11.195312 11.851562 11.195312 11.683594 11.191406 L 11.515625 11.191406 L 11.675781 11.125 C 11.816406 11.070312 11.824219 11.035156 11.761719 10.910156 C 11.667969 10.746094 11.695312 10.359375 11.824219 10.042969 C 11.902344 9.851562 11.886719 9.816406 11.71875 9.667969 L 11.527344 9.507812 L 11.851562 9.507812 C 12.035156 9.507812 12.183594 9.472656 12.183594 9.4375 C 12.183594 9.394531 12.054688 9.367188 11.902344 9.367188 C 11.746094 9.367188 11.621094 9.332031 11.621094 9.296875 C 11.621094 9.253906 11.65625 9.226562 11.691406 9.226562 C 11.730469 9.226562 11.761719 9.191406 11.761719 9.148438 C 11.761719 9.097656 11.691406 9.113281 11.585938 9.183594 C 11.421875 9.289062 11.410156 9.289062 11.402344 9.175781 C 11.394531 9.105469 11.394531 9.027344 11.402344 8.992188 C 11.402344 8.964844 11.378906 8.945312 11.34375 8.945312 C 11.304688 8.945312 11.304688 8.859375 11.339844 8.738281 C 11.367188 8.632812 11.367188 8.5 11.339844 8.449219 C 11.28125 8.367188 11.34375 7.972656 11.445312 7.816406 C 11.472656 7.769531 11.605469 7.691406 11.730469 7.632812 C 11.945312 7.550781 12.007812 7.550781 12.21875 7.632812 C 12.527344 7.769531 12.703125 7.695312 12.984375 7.339844 C 13.097656 7.195312 13.167969 7.125 13.148438 7.183594 C 12.949219 7.703125 12.945312 7.796875 13.054688 8.015625 C 13.140625 8.183594 13.148438 8.226562 13.078125 8.195312 C 12.964844 8.15625 12.535156 8.515625 12.515625 8.660156 C 12.5 8.71875 12.445312 8.875 12.378906 9 C 12.269531 9.21875 12.269531 9.238281 12.394531 9.367188 C 12.492188 9.464844 12.589844 9.484375 12.824219 9.457031 C 13.035156 9.429688 13.105469 9.4375 13.070312 9.492188 C 13.042969 9.542969 13.085938 9.585938 13.183594 9.605469 C 13.273438 9.625 13.429688 9.65625 13.542969 9.675781 C 13.648438 9.695312 13.808594 9.738281 13.910156 9.761719 C 14.042969 9.796875 14.167969 9.738281 14.464844 9.519531 C 14.667969 9.367188 14.984375 9.167969 15.167969 9.085938 C 15.34375 9 15.578125 8.832031 15.675781 8.710938 C 15.980469 8.351562 16.183594 8.230469 16.710938 8.089844 C 16.992188 8.019531 17.226562 7.957031 17.238281 7.957031 C 17.253906 7.957031 17.238281 8 17.210938 8.042969 C 17.183594 8.089844 17.253906 8.035156 17.367188 7.921875 C 17.480469 7.804688 17.554688 7.683594 17.550781 7.648438 C 17.519531 7.570312 17.675781 7.386719 17.738281 7.421875 C 17.769531 7.445312 17.789062 7.394531 17.789062 7.324219 C 17.789062 7.21875 17.761719 7.203125 17.65625 7.269531 C 17.585938 7.304688 17.5 7.316406 17.480469 7.289062 C 17.414062 7.226562 17.613281 7.113281 17.796875 7.113281 C 17.878906 7.113281 17.964844 7.085938 17.984375 7.054688 C 18.007812 7.019531 17.859375 7.007812 17.65625 7.019531 C 17.324219 7.042969 17.269531 7.027344 17.042969 6.824219 C 16.902344 6.683594 16.839844 6.585938 16.886719 6.5625 C 17.015625 6.519531 16.984375 6.410156 16.851562 6.402344 C 16.746094 6.402344 16.746094 6.386719 16.867188 6.34375 C 16.992188 6.289062 16.984375 6.273438 16.761719 6.15625 C 16.625 6.078125 16.414062 5.914062 16.289062 5.789062 C 16.019531 5.527344 15.984375 5.515625 16.019531 5.703125 C 16.035156 5.78125 16.019531 5.84375 15.984375 5.84375 C 15.945312 5.84375 15.878906 5.78125 15.832031 5.703125 C 15.78125 5.625 15.675781 5.5625 15.597656 5.570312 C 15.464844 5.570312 15.464844 5.578125 15.605469 5.632812 C 15.808594 5.71875 15.886719 5.84375 15.730469 5.84375 C 15.632812 5.84375 15.625 5.867188 15.691406 5.929688 C 15.738281 5.980469 15.773438 6.054688 15.773438 6.113281 C 15.773438 6.183594 15.726562 6.175781 15.5625 6.078125 C 15.402344 5.984375 15.332031 5.972656 15.296875 6.035156 C 15.269531 6.078125 15.195312 6.113281 15.140625 6.113281 C 15.085938 6.105469 14.957031 6.113281 14.867188 6.113281 C 14.710938 6.125 14.703125 6.132812 14.808594 6.210938 C 14.910156 6.289062 14.839844 6.304688 14.367188 6.304688 C 14.054688 6.304688 13.804688 6.28125 13.804688 6.246094 C 13.804688 6.21875 13.859375 6.195312 13.929688 6.195312 C 14.007812 6.195312 13.972656 6.148438 13.816406 6.054688 C 13.578125 5.910156 13.269531 5.867188 13.34375 5.984375 C 13.367188 6.019531 13.339844 6.054688 13.28125 6.054688 C 13.21875 6.054688 13.167969 6.007812 13.167969 5.949219 C 13.167969 5.796875 12.796875 5.816406 12.449219 5.992188 L 12.15625 6.148438 L 12.535156 5.78125 C 12.816406 5.519531 12.964844 5.429688 13.070312 5.457031 C 13.15625 5.480469 13.34375 5.445312 13.492188 5.378906 C 13.648438 5.316406 14.035156 5.226562 14.367188 5.175781 C 15.148438 5.054688 15.238281 5.054688 15.332031 5.148438 Z M 28.175781 6.753906 C 28.746094 7.507812 29.34375 8.472656 29.730469 9.253906 L 30.027344 9.84375 L 29.894531 10.050781 L 29.761719 10.246094 L 29.65625 9.824219 C 29.519531 9.324219 29.449219 9.183594 29.351562 9.28125 C 29.308594 9.324219 29.316406 9.457031 29.367188 9.640625 C 29.445312 9.945312 29.410156 10.210938 29.289062 10.210938 C 29.253906 10.210938 29.226562 10.183594 29.226562 10.140625 C 29.226562 10.027344 28.726562 9.507812 28.621094 9.507812 C 28.492188 9.507812 28.492188 9.535156 28.640625 9.808594 C 28.703125 9.9375 28.761719 10.113281 28.769531 10.210938 C 28.773438 10.308594 28.808594 10.464844 28.832031 10.550781 C 28.910156 10.789062 28.839844 10.738281 28.5625 10.351562 C 28.421875 10.15625 28.273438 10 28.238281 10 C 28.121094 10 28.070312 10.21875 28.15625 10.359375 C 28.308594 10.597656 28.261719 10.703125 27.992188 10.703125 C 27.796875 10.703125 27.746094 10.675781 27.746094 10.5625 C 27.746094 10.492188 27.691406 10.375 27.621094 10.304688 C 27.550781 10.230469 27.457031 10.085938 27.410156 9.980469 C 27.28125 9.683594 27.085938 9.753906 27.042969 10.105469 L 27.007812 10.378906 L 26.746094 10.148438 C 26.421875 9.867188 26.015625 9.054688 25.914062 8.515625 C 25.824219 8.007812 25.875 7.230469 26.019531 6.789062 C 26.175781 6.332031 26.367188 6.015625 26.710938 5.65625 L 26.992188 5.359375 L 27.351562 5.753906 C 27.550781 5.964844 27.921875 6.421875 28.175781 6.753906 Z M 11.902344 6.296875 C 11.902344 6.308594 11.84375 6.367188 11.78125 6.414062 C 11.667969 6.507812 11.660156 6.5 11.753906 6.386719 C 11.84375 6.273438 11.902344 6.238281 11.902344 6.296875 Z M 13.050781 6.339844 C 12.957031 6.375 12.886719 6.421875 12.886719 6.445312 C 12.886719 6.472656 12.921875 6.464844 12.957031 6.445312 C 13 6.421875 13.027344 6.445312 13.027344 6.5 C 13.027344 6.550781 12.945312 6.632812 12.84375 6.683594 C 12.675781 6.753906 12.667969 6.753906 12.71875 6.605469 C 12.789062 6.367188 12.886719 6.269531 13.054688 6.273438 C 13.203125 6.273438 13.203125 6.273438 13.050781 6.339844 Z M 14.964844 6.542969 C 15.210938 6.65625 15.269531 6.726562 15.445312 7.160156 C 15.675781 7.761719 15.667969 7.746094 15.480469 7.992188 C 15.183594 8.375 14.796875 8.589844 14.421875 8.589844 C 14.035156 8.589844 13.894531 8.535156 13.472656 8.183594 C 13.28125 8.027344 13.167969 7.878906 13.167969 7.78125 C 13.167969 7.542969 13.578125 6.789062 13.808594 6.585938 C 14.070312 6.367188 14.542969 6.34375 14.964844 6.542969 Z M 17.007812 6.902344 C 17.027344 6.9375 17 6.972656 16.945312 6.972656 C 16.878906 6.972656 16.832031 6.9375 16.832031 6.902344 C 16.832031 6.859375 16.859375 6.832031 16.894531 6.832031 C 16.9375 6.832031 16.984375 6.859375 17.007812 6.902344 Z M 9.210938 9.042969 C 9.324219 9.167969 9.324219 9.167969 9.175781 9.089844 C 9.054688 9.027344 9.015625 8.949219 9.019531 8.78125 C 9.035156 8.589844 9.035156 8.585938 9.0625 8.730469 C 9.085938 8.832031 9.148438 8.972656 9.210938 9.042969 Z M 10.410156 9.875 C 10.359375 9.964844 10.332031 10.078125 10.34375 10.132812 C 10.351562 10.183594 10.332031 10.203125 10.289062 10.175781 C 10.246094 10.15625 10.210938 10.175781 10.210938 10.230469 C 10.210938 10.28125 10.132812 10.402344 10.035156 10.492188 C 9.9375 10.585938 9.859375 10.625 9.859375 10.585938 C 9.859375 10.550781 9.921875 10.457031 10 10.386719 C 10.078125 10.316406 10.140625 10.230469 10.140625 10.195312 C 10.140625 10.132812 10.429688 9.71875 10.472656 9.71875 C 10.484375 9.71875 10.457031 9.789062 10.410156 9.875 Z M 30.675781 11.710938 C 30.964844 12.726562 31.035156 13.097656 30.921875 13.097656 C 30.878906 13.097656 30.84375 13.148438 30.84375 13.203125 C 30.84375 13.332031 30.964844 13.34375 31.007812 13.21875 C 31.019531 13.175781 31.054688 13.304688 31.085938 13.515625 C 31.113281 13.71875 31.121094 13.910156 31.089844 13.929688 C 31.070312 13.949219 31.054688 13.886719 31.054688 13.796875 C 31.054688 13.683594 30.984375 13.589844 30.851562 13.515625 C 30.625 13.386719 30.457031 13.4375 30.457031 13.640625 C 30.457031 13.71875 30.402344 13.769531 30.316406 13.773438 C 30.238281 13.773438 30.105469 13.804688 30.015625 13.839844 C 29.886719 13.878906 29.875 13.910156 29.9375 13.992188 C 30.007812 14.070312 29.980469 14.105469 29.796875 14.175781 C 29.542969 14.269531 29.515625 14.402344 29.726562 14.515625 C 29.964844 14.640625 29.78125 14.726562 29.226562 14.761719 C 28.648438 14.789062 28.5625 14.824219 28.613281 15.007812 C 28.632812 15.078125 28.625 15.132812 28.597656 15.125 C 28.578125 15.121094 28.429688 15.15625 28.273438 15.195312 C 27.902344 15.308594 27.816406 15.304688 27.816406 15.175781 C 27.816406 15.105469 27.894531 15.070312 28.0625 15.070312 C 28.195312 15.070312 28.308594 15.035156 28.308594 14.992188 C 28.308594 14.949219 28.261719 14.9375 28.195312 14.957031 C 28.132812 14.980469 28.015625 15 27.914062 15 C 27.703125 15 27.386719 15.542969 27.550781 15.640625 C 27.632812 15.695312 27.613281 15.710938 27.429688 15.730469 C 27.304688 15.746094 26.851562 16.296875 26.878906 16.394531 C 26.9375 16.550781 26.761719 16.695312 26.621094 16.621094 C 26.519531 16.570312 26.386719 16.625 26.015625 16.867188 C 25.746094 17.042969 25.5 17.183594 25.457031 17.183594 C 25.421875 17.183594 25.640625 17.015625 25.957031 16.808594 C 26.972656 16.160156 27.34375 15.726562 27.804688 14.675781 C 28.140625 13.902344 28.253906 13.410156 28.160156 13.078125 C 28.089844 12.804688 28.089844 12.796875 28.410156 12.519531 C 28.585938 12.367188 28.878906 11.992188 29.0625 11.695312 C 29.246094 11.402344 29.570312 10.972656 29.78125 10.738281 L 30.175781 10.316406 L 30.304688 10.597656 C 30.375 10.753906 30.542969 11.253906 30.675781 11.710938 Z M 29.683594 10.632812 C 29.527344 10.796875 29.394531 10.886719 29.378906 10.84375 C 29.339844 10.730469 29.429688 10.550781 29.492188 10.589844 C 29.527344 10.613281 29.621094 10.570312 29.691406 10.492188 C 29.761719 10.421875 29.851562 10.359375 29.894531 10.359375 C 29.929688 10.351562 29.832031 10.480469 29.683594 10.632812 Z M 9.65625 10.945312 C 9.507812 11.097656 9.4375 11.21875 9.472656 11.28125 C 9.515625 11.351562 9.507812 11.359375 9.429688 11.289062 C 9.351562 11.210938 9.378906 11.15625 9.578125 10.949219 C 9.710938 10.816406 9.832031 10.703125 9.851562 10.703125 C 9.875 10.703125 9.78125 10.808594 9.65625 10.945312 Z M 9.730469 12.007812 C 9.773438 12.121094 9.949219 12.351562 10.125 12.519531 C 10.304688 12.683594 10.449219 12.878906 10.457031 12.949219 C 10.464844 13.0625 10.421875 13.050781 10.125 12.859375 C 9.9375 12.738281 9.695312 12.597656 9.597656 12.550781 L 9.421875 12.449219 L 9.578125 12.289062 C 9.703125 12.15625 9.71875 12.097656 9.65625 11.984375 C 9.613281 11.902344 9.585938 11.753906 9.585938 11.640625 C 9.597656 11.449219 9.597656 11.449219 9.625 11.621094 C 9.640625 11.71875 9.691406 11.886719 9.730469 12.007812 Z M 1.105469 12.691406 C 1.085938 12.746094 1.0625 12.726562 1.0625 12.648438 C 1.054688 12.570312 1.078125 12.527344 1.097656 12.554688 C 1.121094 12.578125 1.125 12.640625 1.105469 12.691406 Z M 1.035156 13.042969 C 1.015625 13.089844 1 13.054688 1 12.957031 C 1 12.859375 1.015625 12.824219 1.035156 12.867188 C 1.050781 12.914062 1.050781 13 1.035156 13.042969 Z M 0.964844 13.429688 C 0.945312 13.5 0.929688 13.457031 0.929688 13.34375 C 0.929688 13.226562 0.945312 13.175781 0.964844 13.21875 C 0.980469 13.269531 0.980469 13.367188 0.964844 13.429688 Z M 0.894531 13.851562 C 0.875 13.921875 0.859375 13.878906 0.859375 13.769531 C 0.859375 13.648438 0.875 13.597656 0.894531 13.640625 C 0.910156 13.691406 0.910156 13.789062 0.894531 13.851562 Z M 0.824219 14.449219 C 0.808594 14.542969 0.796875 14.484375 0.796875 14.332031 C 0.789062 14.175781 0.804688 14.105469 0.824219 14.167969 C 0.839844 14.238281 0.839844 14.367188 0.824219 14.449219 Z M 3.394531 14.253906 C 3.480469 14.378906 3.378906 14.4375 3.203125 14.351562 C 3.027344 14.273438 2.992188 14.210938 3.070312 14.132812 C 3.125 14.085938 3.332031 14.15625 3.394531 14.253906 Z M 31.175781 14.449219 C 31.160156 14.542969 31.148438 14.484375 31.148438 14.332031 C 31.140625 14.175781 31.15625 14.105469 31.175781 14.167969 C 31.191406 14.238281 31.191406 14.367188 31.175781 14.449219 Z M 2.992188 14.367188 C 3.015625 14.402344 3 14.4375 2.964844 14.4375 C 2.921875 14.4375 2.886719 14.402344 2.886719 14.367188 C 2.886719 14.324219 2.902344 14.296875 2.914062 14.296875 C 2.9375 14.296875 2.972656 14.324219 2.992188 14.367188 Z M 3.125 14.726562 C 3.070312 14.824219 2.84375 14.804688 2.753906 14.691406 C 2.683594 14.605469 2.695312 14.585938 2.832031 14.5625 C 3.015625 14.535156 3.191406 14.625 3.125 14.726562 Z M 3.578125 14.632812 C 3.589844 14.683594 3.535156 14.71875 3.457031 14.71875 C 3.308594 14.71875 3.269531 14.640625 3.359375 14.550781 C 3.421875 14.484375 3.542969 14.535156 3.578125 14.632812 Z M 23.789062 14.808594 C 23.726562 14.851562 23.660156 14.945312 23.640625 15 C 23.621094 15.054688 23.597656 15.019531 23.597656 14.914062 C 23.589844 14.789062 23.632812 14.71875 23.71875 14.703125 C 23.886719 14.660156 23.914062 14.703125 23.789062 14.808594 Z M 23.378906 14.945312 C 23.375 15.15625 23.367188 15.160156 23.28125 15.050781 C 23.21875 14.964844 23.085938 14.929688 22.84375 14.921875 L 22.5 14.914062 L 22.851562 14.824219 C 23.375 14.691406 23.378906 14.691406 23.378906 14.945312 Z M 0.753906 15.472656 C 0.738281 15.621094 0.726562 15.515625 0.726562 15.246094 C 0.726562 14.972656 0.738281 14.859375 0.753906 14.980469 C 0.769531 15.105469 0.769531 15.332031 0.753906 15.472656 Z M 4.015625 14.929688 C 4.015625 14.964844 3.984375 15 3.945312 15 C 3.910156 15 3.875 14.964844 3.875 14.929688 C 3.875 14.886719 3.910156 14.859375 3.945312 14.859375 C 3.984375 14.859375 4.015625 14.886719 4.015625 14.929688 Z M 31.246094 15.507812 C 31.230469 15.632812 31.21875 15.535156 31.21875 15.28125 C 31.21875 15.027344 31.230469 14.929688 31.246094 15.050781 C 31.261719 15.175781 31.261719 15.386719 31.246094 15.507812 Z M 5.914062 15.316406 C 5.914062 15.5 5.816406 15.550781 5.738281 15.421875 C 5.675781 15.324219 5.746094 15.140625 5.84375 15.140625 C 5.878906 15.140625 5.914062 15.21875 5.914062 15.316406 Z M 1.550781 15.28125 C 1.550781 15.316406 1.492188 15.351562 1.429688 15.351562 C 1.324219 15.351562 1.316406 15.339844 1.410156 15.28125 C 1.542969 15.195312 1.550781 15.195312 1.550781 15.28125 Z M 6.167969 15.402344 C 6.097656 15.472656 6.035156 15.367188 6.097656 15.273438 C 6.140625 15.195312 6.15625 15.195312 6.183594 15.273438 C 6.195312 15.324219 6.191406 15.378906 6.167969 15.402344 Z M 28.886719 15.480469 C 28.878906 15.527344 28.949219 15.605469 29.050781 15.648438 C 29.273438 15.746094 29.269531 15.804688 29.035156 15.984375 C 28.816406 16.15625 28.695312 16.085938 28.796875 15.832031 C 28.875 15.625 28.839844 15.5625 28.648438 15.5625 C 28.519531 15.5625 28.480469 15.484375 28.570312 15.394531 C 28.648438 15.316406 28.910156 15.378906 28.886719 15.480469 Z M 6.386719 15.597656 C 6.386719 15.703125 6.085938 15.832031 6.007812 15.753906 C 5.984375 15.726562 5.984375 15.660156 6.007812 15.597656 C 6.0625 15.457031 6.386719 15.457031 6.386719 15.597656 Z M 27.992188 15.632812 C 28.015625 15.667969 28 15.703125 27.964844 15.703125 C 27.921875 15.703125 27.886719 15.667969 27.886719 15.632812 C 27.886719 15.589844 27.902344 15.5625 27.914062 15.5625 C 27.9375 15.5625 27.972656 15.589844 27.992188 15.632812 Z M 3.804688 15.773438 C 3.804688 15.9375 3.621094 15.957031 3.4375 15.816406 C 3.261719 15.683594 3.273438 15.660156 3.554688 15.648438 C 3.761719 15.632812 3.804688 15.65625 3.804688 15.773438 Z M 17.394531 16.203125 C 18.28125 16.308594 18.324219 16.324219 18.035156 16.449219 C 17.578125 16.640625 17.203125 16.570312 16.519531 16.140625 C 16.378906 16.050781 16.378906 16.050781 16.550781 16.085938 C 16.648438 16.105469 17.027344 16.160156 17.394531 16.203125 Z M 0.753906 16.914062 C 0.738281 17.042969 0.726562 16.945312 0.726562 16.691406 C 0.726562 16.4375 0.738281 16.339844 0.753906 16.457031 C 0.769531 16.585938 0.769531 16.796875 0.753906 16.914062 Z M 6.054688 16.378906 C 6.054688 16.480469 6.035156 16.480469 5.949219 16.410156 C 5.894531 16.359375 5.84375 16.308594 5.84375 16.296875 C 5.84375 16.28125 5.894531 16.269531 5.949219 16.269531 C 6.007812 16.269531 6.054688 16.316406 6.054688 16.378906 Z M 31.246094 16.914062 C 31.230469 17.042969 31.21875 16.945312 31.21875 16.691406 C 31.21875 16.4375 31.230469 16.339844 31.246094 16.457031 C 31.261719 16.585938 31.261719 16.796875 31.246094 16.914062 Z M 7 16.519531 C 7.140625 16.570312 7.148438 16.660156 7.019531 16.710938 C 6.886719 16.761719 6.730469 16.65625 6.789062 16.554688 C 6.84375 16.464844 6.851562 16.464844 7 16.519531 Z M 8.050781 16.839844 C 8.078125 16.9375 8.121094 16.964844 8.183594 16.9375 C 8.230469 16.902344 8.203125 16.949219 8.121094 17.027344 C 8.035156 17.113281 7.949219 17.246094 7.921875 17.332031 C 7.875 17.472656 7.875 17.472656 7.789062 17.34375 C 7.65625 17.15625 7.726562 16.691406 7.886719 16.691406 C 7.957031 16.691406 8.027344 16.753906 8.050781 16.839844 Z M 10.816406 16.824219 C 11.054688 16.972656 11.308594 17.445312 11.378906 17.878906 C 11.414062 18.097656 11.394531 18.210938 11.28125 18.394531 C 11.054688 18.753906 10.878906 18.832031 10.632812 18.683594 C 10.515625 18.621094 10.421875 18.515625 10.414062 18.449219 C 10.414062 18.378906 10.394531 18.386719 10.351562 18.484375 C 10.308594 18.578125 10.289062 18.589844 10.289062 18.519531 C 10.28125 18.464844 10.261719 18.339844 10.238281 18.238281 C 10.203125 18.089844 10.210938 18.085938 10.28125 18.167969 C 10.351562 18.261719 10.359375 18.253906 10.324219 18.148438 C 10.304688 18.078125 10.28125 17.949219 10.273438 17.867188 C 10.269531 17.726562 10.261719 17.726562 10.210938 17.886719 C 10.183594 17.984375 10.15625 18.015625 10.148438 17.957031 C 10.148438 17.902344 10.191406 17.710938 10.253906 17.542969 C 10.308594 17.375 10.34375 17.191406 10.324219 17.132812 C 10.28125 17.035156 10.464844 16.691406 10.554688 16.691406 C 10.578125 16.691406 10.695312 16.753906 10.816406 16.824219 Z M 28.027344 16.824219 C 28.027344 16.867188 28 16.910156 27.972656 16.929688 C 27.9375 16.949219 27.910156 16.921875 27.910156 16.867188 C 27.910156 16.808594 27.9375 16.761719 27.972656 16.761719 C 28 16.761719 28.027344 16.789062 28.027344 16.824219 Z M 25.316406 17.246094 C 25.273438 17.273438 25.089844 17.359375 24.894531 17.429688 C 24.703125 17.5 24.5 17.589844 24.449219 17.625 C 24.402344 17.660156 24.34375 17.675781 24.324219 17.65625 C 24.269531 17.597656 24.542969 17.457031 24.964844 17.316406 C 25.402344 17.167969 25.394531 17.167969 25.316406 17.246094 Z M 3.789062 17.402344 C 3.773438 17.445312 3.730469 17.472656 3.695312 17.472656 C 3.660156 17.472656 3.621094 17.445312 3.605469 17.402344 C 3.589844 17.359375 3.632812 17.324219 3.695312 17.324219 C 3.761719 17.324219 3.804688 17.359375 3.789062 17.402344 Z M 0.824219 17.726562 C 0.804688 17.796875 0.789062 17.738281 0.789062 17.605469 C 0.789062 17.472656 0.804688 17.414062 0.824219 17.480469 C 0.839844 17.550781 0.839844 17.660156 0.824219 17.726562 Z M 31.175781 17.726562 C 31.15625 17.796875 31.140625 17.738281 31.140625 17.605469 C 31.140625 17.472656 31.15625 17.414062 31.175781 17.480469 C 31.191406 17.550781 31.191406 17.660156 31.175781 17.726562 Z M 23.824219 17.554688 C 23.949219 17.449219 23.945312 17.472656 23.804688 17.648438 C 23.703125 17.769531 23.589844 17.929688 23.550781 18 C 23.492188 18.097656 23.492188 18.042969 23.550781 17.789062 C 23.589844 17.597656 23.640625 17.5 23.648438 17.5625 C 23.675781 17.675781 23.683594 17.675781 23.824219 17.554688 Z M 25.703125 17.71875 C 25.703125 17.808594 25.65625 17.824219 25.464844 17.796875 C 25.304688 17.769531 25.160156 17.804688 25.007812 17.894531 C 24.886719 17.964844 24.769531 18.027344 24.753906 18.027344 C 24.675781 18.027344 24.726562 17.851562 24.839844 17.730469 C 24.992188 17.554688 25.703125 17.550781 25.703125 17.71875 Z M 24.007812 17.894531 C 23.832031 18.054688 23.796875 18.121094 23.875 18.167969 C 23.921875 18.195312 24.007812 18.210938 24.054688 18.191406 C 24.230469 18.125 24.21875 18.296875 24.019531 18.515625 C 23.773438 18.796875 23.703125 18.789062 23.753906 18.5 L 23.796875 18.273438 L 23.660156 18.535156 C 23.402344 19.015625 23.367188 18.894531 23.621094 18.394531 C 23.761719 18.121094 23.945312 17.84375 24.027344 17.789062 C 24.269531 17.621094 24.261719 17.65625 24.007812 17.894531 Z M 0.894531 18.183594 C 0.875 18.238281 0.851562 18.21875 0.851562 18.140625 C 0.84375 18.0625 0.867188 18.019531 0.886719 18.050781 C 0.910156 18.070312 0.914062 18.132812 0.894531 18.183594 Z M 31.105469 18.289062 C 31.085938 18.359375 31.070312 18.316406 31.070312 18.203125 C 31.070312 18.085938 31.085938 18.035156 31.105469 18.078125 C 31.121094 18.125 31.121094 18.226562 31.105469 18.289062 Z M 7.378906 18.308594 C 7.332031 18.378906 7.28125 18.429688 7.261719 18.414062 C 7.230469 18.386719 7.386719 18.167969 7.4375 18.167969 C 7.449219 18.167969 7.429688 18.230469 7.378906 18.308594 Z M 23.402344 18.289062 C 23.261719 18.660156 22.773438 19.457031 22.632812 19.550781 C 22.542969 19.613281 22.351562 19.675781 22.203125 19.695312 C 21.992188 19.726562 21.910156 19.703125 21.804688 19.585938 C 21.675781 19.445312 21.675781 19.4375 21.804688 19.394531 C 21.878906 19.367188 22.042969 19.304688 22.175781 19.253906 C 22.449219 19.140625 22.703125 19.125 22.640625 19.21875 C 22.621094 19.253906 22.640625 19.308594 22.683594 19.339844 C 22.730469 19.367188 22.753906 19.359375 22.730469 19.324219 C 22.675781 19.230469 22.804688 18.929688 22.878906 18.980469 C 22.914062 19 22.964844 18.984375 22.992188 18.945312 C 23.015625 18.902344 22.964844 18.875 22.875 18.875 C 22.730469 18.867188 22.726562 18.859375 22.839844 18.796875 C 22.902344 18.761719 22.992188 18.746094 23.027344 18.769531 C 23.070312 18.796875 23.089844 18.789062 23.085938 18.753906 C 23.0625 18.695312 23.367188 18.167969 23.421875 18.167969 C 23.4375 18.167969 23.421875 18.226562 23.402344 18.289062 Z M 21.515625 18.519531 C 21.4375 18.554688 21.324219 18.585938 21.269531 18.585938 C 21.203125 18.585938 21.210938 18.554688 21.304688 18.519531 C 21.378906 18.484375 21.492188 18.457031 21.550781 18.457031 C 21.613281 18.457031 21.605469 18.484375 21.515625 18.519531 Z M 31.035156 18.710938 C 31.015625 18.78125 31 18.738281 31 18.625 C 31 18.507812 31.015625 18.457031 31.035156 18.5 C 31.050781 18.550781 31.050781 18.648438 31.035156 18.710938 Z M 21.246094 19.0625 C 21.226562 19.132812 21.210938 19.089844 21.210938 18.980469 C 21.210938 18.859375 21.226562 18.808594 21.246094 18.851562 C 21.261719 18.902344 21.261719 19 21.246094 19.0625 Z M 22.65625 18.914062 C 22.632812 18.9375 22.570312 18.945312 22.519531 18.921875 C 22.464844 18.902344 22.484375 18.878906 22.5625 18.878906 C 22.640625 18.875 22.683594 18.894531 22.65625 18.914062 Z M 30.964844 19.097656 C 30.945312 19.148438 30.929688 19.113281 30.929688 19.015625 C 30.929688 18.914062 30.945312 18.878906 30.964844 18.921875 C 30.980469 18.972656 30.980469 19.054688 30.964844 19.097656 Z M 30.894531 19.378906 C 30.875 19.4375 30.851562 19.414062 30.851562 19.339844 C 30.84375 19.261719 30.867188 19.21875 30.886719 19.246094 C 30.910156 19.269531 30.914062 19.332031 30.894531 19.378906 Z M 24.078125 19.464844 C 24.625 19.472656 24.753906 19.492188 24.773438 19.585938 C 24.789062 19.65625 24.691406 19.738281 24.507812 19.824219 C 24.34375 19.894531 24.132812 20.042969 24.027344 20.140625 C 23.902344 20.269531 23.730469 20.34375 23.519531 20.375 C 23.34375 20.394531 23.042969 20.484375 22.851562 20.578125 L 22.5 20.738281 L 22.957031 20.773438 C 23.710938 20.84375 23.769531 20.945312 23.226562 21.21875 C 22.875 21.394531 22.808594 21.402344 22.253906 21.351562 L 21.65625 21.304688 L 21.949219 20.984375 C 22.105469 20.808594 22.386719 20.414062 22.570312 20.105469 C 22.945312 19.484375 23.070312 19.351562 23.269531 19.414062 C 23.339844 19.4375 23.703125 19.457031 24.078125 19.464844 Z M 30.824219 19.660156 C 30.804688 19.71875 30.78125 19.695312 30.78125 19.621094 C 30.773438 19.542969 30.796875 19.5 30.816406 19.527344 C 30.839844 19.550781 30.84375 19.613281 30.824219 19.660156 Z M 30.753906 19.945312 C 30.730469 20 30.710938 19.980469 30.710938 19.902344 C 30.703125 19.824219 30.726562 19.78125 30.746094 19.808594 C 30.769531 19.832031 30.773438 19.894531 30.753906 19.945312 Z M 22.5 19.929688 C 22.480469 19.964844 22.386719 20 22.304688 19.992188 C 22.15625 19.992188 22.15625 19.984375 22.289062 19.929688 C 22.484375 19.84375 22.550781 19.84375 22.5 19.929688 Z M 30.519531 20.730469 C 30.414062 21.0625 30.308594 21.324219 30.296875 21.304688 C 30.28125 21.289062 30.359375 21.007812 30.464844 20.675781 C 30.570312 20.34375 30.675781 20.085938 30.691406 20.105469 C 30.703125 20.121094 30.625 20.402344 30.519531 20.730469 Z M 21.175781 20.183594 C 21.15625 20.203125 21.089844 20.210938 21.042969 20.191406 C 20.984375 20.167969 21.007812 20.148438 21.085938 20.148438 C 21.160156 20.140625 21.203125 20.160156 21.175781 20.183594 Z M 29.351562 21.367188 C 29.484375 21.492188 29.28125 21.691406 29.019531 21.691406 C 28.824219 21.691406 28.527344 21.859375 28.589844 21.929688 C 28.613281 21.949219 28.859375 21.972656 29.125 21.980469 C 29.730469 21.992188 29.992188 22.140625 29.867188 22.378906 C 29.824219 22.457031 29.726562 22.550781 29.648438 22.570312 C 29.492188 22.621094 29.457031 22.71875 29.585938 22.761719 C 29.632812 22.773438 29.605469 22.902344 29.507812 23.121094 C 29.414062 23.304688 29.332031 23.445312 29.316406 23.421875 C 29.296875 23.410156 29.324219 23.324219 29.367188 23.238281 C 29.542969 22.910156 29.035156 22.726562 28.480469 22.914062 C 27.929688 23.097656 27.71875 23.070312 27.464844 22.761719 C 27.34375 22.621094 27.230469 22.421875 27.210938 22.324219 C 27.191406 22.226562 27.113281 22.015625 27.027344 21.84375 C 26.902344 21.589844 26.894531 21.515625 26.964844 21.359375 L 27.050781 21.175781 L 28.15625 21.226562 C 28.910156 21.261719 29.289062 21.304688 29.351562 21.367188 Z M 15 25.480469 C 15 25.570312 14.914062 25.632812 14.84375 25.589844 C 14.773438 25.550781 14.839844 25.421875 14.9375 25.421875 C 14.972656 25.421875 15 25.449219 15 25.480469 Z M 17.230469 25.816406 C 17.210938 25.839844 17.148438 25.84375 17.097656 25.824219 C 17.042969 25.804688 17.0625 25.78125 17.140625 25.78125 C 17.21875 25.773438 17.261719 25.796875 17.230469 25.816406 Z M 17.230469 25.816406 "/>
<path style=" stroke:none;fill-rule:nonzero;fill:rgb(0%,0%,0%);fill-opacity:1;" d="M 6.902344 15.726562 C 6.902344 15.78125 6.980469 15.894531 7.070312 15.980469 C 7.28125 16.175781 7.386719 16.054688 7.226562 15.808594 C 7.097656 15.621094 6.902344 15.570312 6.902344 15.726562 Z M 6.902344 15.726562 "/>
<path style=" stroke:none;fill-rule:nonzero;fill:rgb(0%,0%,0%);fill-opacity:1;" d="M 16.394531 5.667969 C 16.507812 5.753906 16.578125 5.761719 16.691406 5.703125 C 16.894531 5.589844 16.867188 5.5625 16.535156 5.5625 C 16.246094 5.5625 16.238281 5.5625 16.394531 5.667969 Z M 16.394531 5.667969 "/>
<path style=" stroke:none;fill-rule:nonzero;fill:rgb(0%,0%,0%);fill-opacity:1;" d="M 17.027344 5.613281 C 17.078125 5.632812 17.140625 5.625 17.160156 5.605469 C 17.191406 5.585938 17.148438 5.5625 17.070312 5.570312 C 16.992188 5.570312 16.972656 5.589844 17.027344 5.613281 Z M 17.027344 5.613281 "/>
<path style=" stroke:none;fill-rule:nonzero;fill:rgb(0%,0%,0%);fill-opacity:1;" d="M 17.464844 5.632812 C 17.5625 5.660156 17.738281 5.691406 17.851562 5.691406 C 18.054688 5.691406 18.054688 5.691406 17.886719 5.632812 C 17.789062 5.605469 17.621094 5.578125 17.5 5.578125 C 17.296875 5.578125 17.296875 5.578125 17.464844 5.632812 Z M 17.464844 5.632812 "/>
<path style=" stroke:none;fill-rule:nonzero;fill:rgb(0%,0%,0%);fill-opacity:1;" d="M 18.730469 5.589844 C 18.730469 5.605469 18.78125 5.65625 18.839844 5.703125 C 18.902344 5.753906 18.945312 5.761719 18.945312 5.71875 C 18.945312 5.683594 18.894531 5.632812 18.839844 5.605469 C 18.78125 5.585938 18.730469 5.578125 18.730469 5.589844 Z M 18.730469 5.589844 "/>
<path style=" stroke:none;fill-rule:nonzero;fill:rgb(0%,0%,0%);fill-opacity:1;" d="M 14.140625 6.105469 C 14.191406 6.125 14.253906 6.121094 14.273438 6.097656 C 14.304688 6.078125 14.261719 6.054688 14.183594 6.0625 C 14.105469 6.0625 14.085938 6.085938 14.140625 6.105469 Z M 14.140625 6.105469 "/>
<path style=" stroke:none;fill-rule:nonzero;fill:rgb(0%,0%,0%);fill-opacity:1;" d="M 17.402344 6.730469 C 17.5 6.851562 17.675781 6.859375 17.675781 6.738281 C 17.675781 6.695312 17.597656 6.648438 17.5 6.648438 C 17.351562 6.632812 17.332031 6.65625 17.402344 6.730469 Z M 17.402344 6.730469 "/>
<path style=" stroke:none;fill-rule:nonzero;fill:rgb(0%,0%,0%);fill-opacity:1;" d="M 20.132812 6.9375 C 20.121094 6.949219 19.992188 6.980469 19.859375 6.992188 C 19.726562 7.015625 19.613281 7.035156 19.613281 7.042969 C 19.613281 7.050781 19.550781 7.0625 19.472656 7.078125 C 19.394531 7.089844 19.324219 7.140625 19.308594 7.175781 C 19.296875 7.21875 19.253906 7.253906 19.210938 7.253906 C 19.113281 7.253906 18.945312 7.4375 18.992188 7.492188 C 19.019531 7.515625 18.992188 7.535156 18.945312 7.535156 C 18.796875 7.535156 18.585938 7.839844 18.597656 8.027344 C 18.621094 8.246094 18.535156 8.519531 18.445312 8.519531 C 18.410156 8.519531 18.378906 8.597656 18.378906 8.691406 C 18.378906 8.789062 18.351562 8.886719 18.308594 8.910156 C 18.269531 8.9375 18.261719 8.902344 18.28125 8.824219 C 18.324219 8.710938 18.316406 8.710938 18.230469 8.808594 C 18.175781 8.867188 17.851562 9.035156 17.5 9.183594 C 17.15625 9.332031 16.839844 9.484375 16.796875 9.519531 C 16.746094 9.578125 16.769531 9.585938 16.867188 9.550781 C 18.226562 9.050781 18.316406 9.019531 18.273438 9.148438 C 18.246094 9.253906 18.289062 9.289062 18.515625 9.324219 C 18.824219 9.375 18.945312 9.484375 18.796875 9.585938 C 18.726562 9.625 18.773438 9.648438 18.9375 9.648438 C 19.140625 9.648438 19.160156 9.660156 19.085938 9.753906 C 19.007812 9.84375 19.027344 9.859375 19.183594 9.859375 C 19.289062 9.859375 19.4375 9.886719 19.507812 9.929688 C 19.589844 9.972656 19.710938 9.972656 19.859375 9.921875 C 20.140625 9.816406 20.339844 9.957031 20.0625 10.0625 L 19.894531 10.132812 L 20.078125 10.132812 C 20.296875 10.140625 20.351562 10.253906 20.34375 10.621094 C 20.339844 11 20.273438 11.089844 20 11.113281 C 19.753906 11.140625 19.421875 11.28125 19.226562 11.445312 C 19.167969 11.492188 18.957031 11.585938 18.761719 11.648438 C 18.308594 11.796875 17.691406 12.238281 17.632812 12.457031 C 17.605469 12.550781 17.472656 12.832031 17.332031 13.089844 C 17.191406 13.34375 17.035156 13.640625 16.980469 13.746094 C 16.878906 13.9375 16.449219 14.097656 16.210938 14.035156 C 16.125 14.015625 16.085938 14.050781 16.078125 14.132812 C 16.070312 14.246094 16.113281 14.261719 16.34375 14.238281 C 16.570312 14.21875 16.65625 14.238281 16.789062 14.386719 C 16.9375 14.542969 17 14.5625 17.332031 14.535156 C 17.691406 14.507812 17.726562 14.519531 17.980469 14.753906 C 18.121094 14.886719 18.238281 15.027344 18.238281 15.0625 C 18.238281 15.097656 18.34375 15.140625 18.472656 15.167969 C 18.648438 15.203125 18.675781 15.230469 18.589844 15.28125 C 18.515625 15.332031 18.570312 15.351562 18.804688 15.367188 C 19.359375 15.394531 19.535156 15.367188 19.949219 15.183594 C 20.175781 15.085938 20.375 15 20.394531 15 C 20.410156 15 20.457031 15.078125 20.492188 15.175781 C 20.542969 15.304688 20.613281 15.351562 20.753906 15.351562 C 20.867188 15.351562 20.984375 15.324219 21.035156 15.296875 C 21.230469 15.167969 21.832031 13.773438 21.832031 13.445312 C 21.832031 13.375 21.914062 13.253906 22.027344 13.160156 C 22.148438 13.0625 22.183594 13 22.132812 12.980469 C 21.949219 12.914062 22.050781 12.808594 22.289062 12.832031 C 22.578125 12.851562 22.597656 12.832031 22.683594 12.484375 C 22.773438 12.15625 22.773438 12.148438 22.695312 11.761719 C 22.640625 11.492188 22.625 11.464844 22.578125 11.597656 C 22.550781 11.691406 22.492188 11.761719 22.457031 11.761719 C 22.414062 11.761719 22.332031 11.808594 22.273438 11.875 C 22.175781 11.964844 22.175781 12.015625 22.246094 12.121094 C 22.359375 12.308594 22.28125 12.414062 22.089844 12.308594 C 22.007812 12.269531 21.902344 12.183594 21.859375 12.125 C 21.804688 12.050781 21.753906 12.042969 21.632812 12.105469 C 21.464844 12.195312 21.378906 12.113281 21.445312 11.910156 C 21.492188 11.746094 21.105469 11.386719 20.761719 11.273438 L 20.519531 11.195312 L 20.691406 10.261719 C 20.839844 9.421875 20.886719 9.289062 21.132812 8.929688 C 21.507812 8.394531 21.640625 8.054688 21.589844 7.78125 C 21.550781 7.5625 21.226562 7.195312 20.949219 7.054688 C 20.796875 6.980469 20.175781 6.886719 20.132812 6.9375 Z M 20.980469 7.316406 C 21.28125 7.480469 21.449219 7.789062 21.378906 8.070312 C 21.351562 8.167969 21.167969 8.5 20.964844 8.804688 L 20.597656 9.359375 L 20.289062 9.332031 C 19.972656 9.304688 19.691406 9.121094 19.746094 8.980469 C 19.769531 8.921875 19.710938 8.910156 19.597656 8.929688 C 19.445312 8.957031 19.421875 8.945312 19.457031 8.832031 C 19.65625 8.210938 19.675781 8.105469 19.589844 7.921875 C 19.519531 7.769531 19.464844 7.738281 19.324219 7.769531 L 19.148438 7.796875 L 19.308594 7.625 C 19.71875 7.183594 20.449219 7.050781 20.980469 7.316406 Z M 20.703125 12.359375 C 20.78125 12.449219 20.773438 12.5625 20.667969 13.015625 C 20.527344 13.640625 20.472656 13.726562 20.308594 13.585938 C 20.210938 13.5 20.195312 13.394531 20.238281 12.867188 C 20.261719 12.519531 20.296875 12.210938 20.324219 12.175781 C 20.367188 12.097656 20.570312 12.195312 20.703125 12.359375 Z M 19.710938 12.867188 C 19.703125 13.246094 19.71875 13.625 19.746094 13.710938 C 19.816406 13.921875 19.746094 13.9375 19.261719 13.84375 L 18.839844 13.753906 L 18.796875 13.375 C 18.753906 12.949219 18.796875 12.769531 18.984375 12.597656 C 19.097656 12.5 19.640625 12.183594 19.703125 12.183594 C 19.710938 12.183594 19.71875 12.492188 19.710938 12.867188 Z M 22.394531 12.597656 C 22.394531 12.632812 22.34375 12.683594 22.28125 12.703125 C 22.113281 12.769531 22.085938 12.753906 22.183594 12.640625 C 22.28125 12.519531 22.394531 12.5 22.394531 12.597656 Z M 22.394531 12.597656 "/>
<path style=" stroke:none;fill-rule:nonzero;fill:rgb(0%,0%,0%);fill-opacity:1;" d="M 20 7.472656 C 20 7.507812 20.035156 7.519531 20.070312 7.5 C 20.113281 7.480469 20.140625 7.445312 20.140625 7.421875 C 20.140625 7.410156 20.113281 7.394531 20.070312 7.394531 C 20.035156 7.394531 20 7.429688 20 7.472656 Z M 20 7.472656 "/>
<path style=" stroke:none;fill-rule:nonzero;fill:rgb(0%,0%,0%);fill-opacity:1;" d="M 21.054688 8.019531 C 21.054688 8.054688 21.089844 8.113281 21.125 8.132812 C 21.167969 8.15625 21.195312 8.148438 21.195312 8.105469 C 21.195312 8.070312 21.167969 8.015625 21.125 7.992188 C 21.089844 7.972656 21.054688 7.980469 21.054688 8.019531 Z M 21.054688 8.019531 "/>
<path style=" stroke:none;fill-rule:nonzero;fill:rgb(0%,0%,0%);fill-opacity:1;" d="M 16.226562 9.054688 C 16.097656 9.15625 16.097656 9.15625 16.269531 9.078125 C 16.484375 8.980469 16.519531 8.945312 16.4375 8.945312 C 16.394531 8.945312 16.304688 8.992188 16.226562 9.054688 Z M 16.226562 9.054688 "/>
<path style=" stroke:none;fill-rule:nonzero;fill:rgb(0%,0%,0%);fill-opacity:1;" d="M 21.515625 9.550781 C 21.449219 9.648438 21.410156 9.738281 21.421875 9.761719 C 21.4375 9.773438 21.507812 9.691406 21.578125 9.578125 C 21.726562 9.316406 21.683594 9.296875 21.515625 9.550781 Z M 21.515625 9.550781 "/>
<path style=" stroke:none;fill-rule:nonzero;fill:rgb(0%,0%,0%);fill-opacity:1;" d="M 21.246094 9.542969 C 21.175781 9.589844 21.148438 9.65625 21.183594 9.675781 C 21.21875 9.695312 21.289062 9.667969 21.339844 9.613281 C 21.457031 9.464844 21.402344 9.421875 21.246094 9.542969 Z M 21.246094 9.542969 "/>
<path style=" stroke:none;fill-rule:nonzero;fill:rgb(0%,0%,0%);fill-opacity:1;" d="M 17.238281 9.597656 C 16.972656 9.640625 16.761719 9.695312 16.761719 9.738281 C 16.761719 9.773438 16.816406 9.78125 16.878906 9.761719 C 16.945312 9.730469 17.296875 9.691406 17.65625 9.667969 C 18.019531 9.648438 18.332031 9.597656 18.351562 9.5625 C 18.402344 9.492188 17.851562 9.507812 17.238281 9.597656 Z M 17.238281 9.597656 "/>
<path style=" stroke:none;fill-rule:nonzero;fill:rgb(0%,0%,0%);fill-opacity:1;" d="M 14.4375 9.78125 C 14.4375 9.808594 14.515625 9.824219 14.613281 9.804688 C 14.710938 9.789062 14.789062 9.761719 14.789062 9.746094 C 14.789062 9.730469 14.710938 9.71875 14.613281 9.71875 C 14.515625 9.71875 14.4375 9.746094 14.4375 9.78125 Z M 14.4375 9.78125 "/>
<path style=" stroke:none;fill-rule:nonzero;fill:rgb(0%,0%,0%);fill-opacity:1;" d="M 21.761719 9.816406 C 21.761719 9.894531 21.703125 9.992188 21.640625 10.042969 C 21.570312 10.089844 21.550781 10.140625 21.589844 10.140625 C 21.632812 10.140625 21.726562 10.078125 21.796875 10 C 21.894531 9.886719 21.910156 9.839844 21.84375 9.773438 C 21.78125 9.710938 21.761719 9.71875 21.761719 9.816406 Z M 21.761719 9.816406 "/>
<path style=" stroke:none;fill-rule:nonzero;fill:rgb(0%,0%,0%);fill-opacity:1;" d="M 16.464844 10 C 16.445312 10.121094 16.457031 10.230469 16.492188 10.253906 C 16.519531 10.273438 16.550781 10.175781 16.550781 10.042969 C 16.550781 9.730469 16.507812 9.710938 16.464844 10 Z M 16.464844 10 "/>
<path style=" stroke:none;fill-rule:nonzero;fill:rgb(0%,0%,0%);fill-opacity:1;" d="M 17.414062 10.050781 C 17.21875 10.125 17.34375 10.175781 17.691406 10.15625 C 18.050781 10.140625 18.054688 10.140625 17.886719 10.238281 C 17.71875 10.34375 17.71875 10.34375 17.867188 10.351562 C 18.050781 10.351562 18.113281 10.269531 18.054688 10.113281 C 18.015625 10 17.621094 9.964844 17.414062 10.050781 Z M 17.414062 10.050781 "/>
<path style=" stroke:none;fill-rule:nonzero;fill:rgb(0%,0%,0%);fill-opacity:1;" d="M 15.84375 10.351562 C 15.921875 10.402344 15.878906 10.445312 15.632812 10.554688 C 15.296875 10.710938 15.507812 10.683594 15.910156 10.519531 C 16.035156 10.464844 16.273438 10.421875 16.4375 10.414062 C 16.660156 10.414062 16.695312 10.402344 16.585938 10.351562 C 16.386719 10.269531 15.710938 10.269531 15.84375 10.351562 Z M 15.84375 10.351562 "/>
<path style=" stroke:none;fill-rule:nonzero;fill:rgb(0%,0%,0%);fill-opacity:1;" d="M 17.945312 10.472656 C 17.992188 10.492188 18.054688 10.484375 18.078125 10.464844 C 18.105469 10.445312 18.0625 10.421875 17.984375 10.429688 C 17.910156 10.429688 17.886719 10.449219 17.945312 10.472656 Z M 17.945312 10.472656 "/>
<path style=" stroke:none;fill-rule:nonzero;fill:rgb(0%,0%,0%);fill-opacity:1;" d="M 17.65625 10.589844 C 17.625 10.660156 17.65625 10.675781 17.753906 10.65625 C 17.824219 10.632812 17.867188 10.589844 17.84375 10.554688 C 17.789062 10.464844 17.695312 10.480469 17.65625 10.589844 Z M 17.65625 10.589844 "/>
<path style=" stroke:none;fill-rule:nonzero;fill:rgb(0%,0%,0%);fill-opacity:1;" d="M 18.203125 10.5625 C 18.226562 10.597656 18.273438 10.632812 18.316406 10.632812 C 18.351562 10.632812 18.378906 10.597656 18.378906 10.5625 C 18.378906 10.519531 18.332031 10.492188 18.269531 10.492188 C 18.210938 10.492188 18.183594 10.519531 18.203125 10.5625 Z M 18.203125 10.5625 "/>
<path style=" stroke:none;fill-rule:nonzero;fill:rgb(0%,0%,0%);fill-opacity:1;" d="M 22.675781 10.738281 C 22.769531 10.839844 22.859375 10.914062 22.875 10.914062 C 22.894531 10.914062 22.839844 10.839844 22.746094 10.738281 C 22.65625 10.640625 22.5625 10.5625 22.550781 10.5625 C 22.527344 10.5625 22.585938 10.640625 22.675781 10.738281 Z M 22.675781 10.738281 "/>
<path style=" stroke:none;fill-rule:nonzero;fill:rgb(0%,0%,0%);fill-opacity:1;" d="M 13.203125 10.84375 C 13.089844 10.957031 13.035156 11.054688 13.078125 11.054688 C 13.148438 11.054688 13.316406 10.886719 13.410156 10.71875 C 13.492188 10.578125 13.421875 10.621094 13.203125 10.84375 Z M 13.203125 10.84375 "/>
<path style=" stroke:none;fill-rule:nonzero;fill:rgb(0%,0%,0%);fill-opacity:1;" d="M 15.070312 10.773438 C 15.015625 10.808594 15 10.84375 15.035156 10.84375 C 15.078125 10.84375 15.15625 10.808594 15.210938 10.773438 C 15.269531 10.738281 15.289062 10.703125 15.246094 10.703125 C 15.210938 10.703125 15.125 10.738281 15.070312 10.773438 Z M 15.070312 10.773438 "/>
<path style=" stroke:none;fill-rule:nonzero;fill:rgb(0%,0%,0%);fill-opacity:1;" d="M 16.902344 10.84375 C 16.839844 10.886719 16.832031 10.914062 16.878906 10.914062 C 16.921875 10.914062 16.984375 10.878906 17.007812 10.84375 C 17.0625 10.761719 17.035156 10.761719 16.902344 10.84375 Z M 16.902344 10.84375 "/>
<path style=" stroke:none;fill-rule:nonzero;fill:rgb(0%,0%,0%);fill-opacity:1;" d="M 16.902344 10.984375 C 16.535156 11.140625 16.449219 11.15625 16.515625 11.054688 C 16.578125 10.957031 16.535156 10.964844 16.183594 11.121094 C 15.921875 11.230469 15.808594 11.238281 15.484375 11.183594 C 15.019531 11.097656 14.449219 11.113281 14.304688 11.203125 C 14.21875 11.253906 14.246094 11.261719 14.402344 11.230469 C 14.703125 11.175781 15.203125 11.167969 15.253906 11.210938 C 15.273438 11.238281 15.105469 11.296875 14.878906 11.34375 C 14.65625 11.386719 14.515625 11.445312 14.554688 11.457031 C 14.605469 11.480469 14.886719 11.4375 15.175781 11.375 C 15.472656 11.304688 15.726562 11.269531 15.746094 11.289062 C 15.769531 11.308594 15.71875 11.34375 15.640625 11.375 C 15.554688 11.394531 15.492188 11.449219 15.492188 11.484375 C 15.492188 11.519531 15.625 11.484375 15.796875 11.402344 C 15.957031 11.316406 16.203125 11.238281 16.339844 11.226562 C 16.726562 11.195312 17.167969 11.050781 17.210938 10.945312 C 17.230469 10.886719 17.238281 10.84375 17.230469 10.851562 C 17.226562 10.859375 17.078125 10.914062 16.902344 10.984375 Z M 16.902344 10.984375 "/>
<path style=" stroke:none;fill-rule:nonzero;fill:rgb(0%,0%,0%);fill-opacity:1;" d="M 13.550781 11.332031 C 13.515625 11.515625 13.472656 11.550781 13.308594 11.550781 C 13.070312 11.550781 12.886719 11.613281 12.886719 11.695312 C 12.886719 11.730469 12.972656 11.726562 13.070312 11.691406 C 13.167969 11.648438 13.324219 11.621094 13.414062 11.621094 C 13.535156 11.621094 13.597656 11.5625 13.648438 11.410156 C 13.695312 11.28125 13.695312 11.183594 13.65625 11.160156 C 13.621094 11.132812 13.570312 11.210938 13.550781 11.332031 Z M 13.550781 11.332031 "/>
<path style=" stroke:none;fill-rule:nonzero;fill:rgb(0%,0%,0%);fill-opacity:1;" d="M 16.972656 11.273438 C 16.695312 11.308594 16.34375 11.445312 15.773438 11.730469 C 15.332031 11.957031 14.921875 12.183594 14.875 12.230469 C 14.816406 12.28125 14.710938 12.359375 14.632812 12.402344 C 14.554688 12.445312 14.515625 12.492188 14.527344 12.515625 C 14.550781 12.527344 14.710938 12.457031 14.894531 12.351562 C 15.078125 12.246094 15.464844 12.105469 15.761719 12.035156 C 16.402344 11.878906 16.484375 11.875 16.464844 11.980469 C 16.429688 12.125 16.589844 12.121094 16.769531 11.964844 L 16.9375 11.808594 L 16.746094 11.859375 C 16.632812 11.878906 16.535156 11.867188 16.507812 11.824219 C 16.480469 11.773438 16.34375 11.761719 16.167969 11.78125 C 15.910156 11.816406 15.894531 11.816406 16.054688 11.738281 C 16.15625 11.691406 16.316406 11.597656 16.429688 11.519531 C 16.570312 11.429688 16.796875 11.378906 17.253906 11.351562 C 17.605469 11.339844 17.910156 11.289062 17.929688 11.253906 C 17.972656 11.191406 17.667969 11.195312 16.972656 11.273438 Z M 16.972656 11.273438 "/>
<path style=" stroke:none;fill-rule:nonzero;fill:rgb(0%,0%,0%);fill-opacity:1;" d="M 11.984375 11.632812 C 11.859375 11.753906 11.773438 11.875 11.796875 11.886719 C 11.808594 11.902344 11.921875 11.816406 12.050781 11.695312 C 12.167969 11.570312 12.253906 11.457031 12.238281 11.4375 C 12.21875 11.421875 12.105469 11.507812 11.984375 11.632812 Z M 11.984375 11.632812 "/>
<path style=" stroke:none;fill-rule:nonzero;fill:rgb(0%,0%,0%);fill-opacity:1;" d="M 12.113281 12.007812 C 12.0625 12.070312 12.035156 12.132812 12.054688 12.148438 C 12.078125 12.167969 12.132812 12.140625 12.183594 12.078125 C 12.230469 12.015625 12.261719 11.949219 12.238281 11.9375 C 12.21875 11.914062 12.160156 11.945312 12.113281 12.007812 Z M 12.113281 12.007812 "/>
<path style=" stroke:none;fill-rule:nonzero;fill:rgb(0%,0%,0%);fill-opacity:1;" d="M 16.957031 12.054688 C 16.808594 12.140625 16.691406 12.238281 16.691406 12.269531 C 16.691406 12.367188 16.789062 12.324219 17.070312 12.113281 C 17.394531 11.867188 17.332031 11.839844 16.957031 12.054688 Z M 16.957031 12.054688 "/>
<path style=" stroke:none;fill-rule:nonzero;fill:rgb(0%,0%,0%);fill-opacity:1;" d="M 16.089844 12.105469 C 16.070312 12.148438 16.085938 12.183594 16.125 12.183594 C 16.167969 12.183594 16.183594 12.210938 16.160156 12.253906 C 16.140625 12.296875 16.167969 12.304688 16.230469 12.28125 C 16.296875 12.253906 16.332031 12.203125 16.316406 12.160156 C 16.28125 12.054688 16.148438 12.019531 16.089844 12.105469 Z M 16.089844 12.105469 "/>
<path style=" stroke:none;fill-rule:nonzero;fill:rgb(0%,0%,0%);fill-opacity:1;" d="M 15.984375 12.585938 C 15.746094 12.804688 15.578125 13 15.625 13.015625 C 15.667969 13.027344 15.878906 12.878906 16.097656 12.683594 C 16.316406 12.484375 16.519531 12.324219 16.554688 12.324219 C 16.589844 12.324219 16.621094 12.289062 16.621094 12.253906 C 16.621094 12.089844 16.410156 12.203125 15.984375 12.585938 Z M 15.984375 12.585938 "/>
<path style=" stroke:none;fill-rule:nonzero;fill:rgb(0%,0%,0%);fill-opacity:1;" d="M 15.113281 12.542969 C 14.632812 12.695312 14.484375 12.789062 14.859375 12.703125 C 14.992188 12.675781 15.226562 12.65625 15.375 12.660156 C 15.542969 12.675781 15.625 12.65625 15.597656 12.605469 C 15.578125 12.570312 15.589844 12.535156 15.625 12.535156 C 15.667969 12.535156 15.703125 12.5 15.703125 12.464844 C 15.703125 12.375 15.605469 12.378906 15.113281 12.542969 Z M 15.113281 12.542969 "/>
<path style=" stroke:none;fill-rule:nonzero;fill:rgb(0%,0%,0%);fill-opacity:1;" d="M 15.902344 12.949219 C 15.753906 13.054688 15.65625 13.160156 15.675781 13.183594 C 15.691406 13.203125 15.625 13.273438 15.527344 13.339844 C 15.429688 13.402344 15.351562 13.484375 15.351562 13.519531 C 15.351562 13.5625 15.421875 13.550781 15.515625 13.492188 C 15.621094 13.421875 15.703125 13.410156 15.773438 13.449219 C 15.867188 13.507812 15.859375 13.519531 15.761719 13.519531 C 15.691406 13.519531 15.632812 13.570312 15.632812 13.625 C 15.632812 13.683594 15.65625 13.730469 15.675781 13.730469 C 15.773438 13.730469 16.195312 13.5 16.195312 13.445312 C 16.195312 13.410156 16.246094 13.378906 16.316406 13.378906 C 16.414062 13.378906 16.414062 13.394531 16.304688 13.519531 C 16.230469 13.597656 16.210938 13.660156 16.253906 13.660156 C 16.332031 13.660156 16.550781 13.394531 16.550781 13.296875 C 16.550781 13.261719 16.507812 13.238281 16.449219 13.238281 C 16.394531 13.238281 16.332031 13.191406 16.308594 13.125 C 16.289062 13.070312 16.296875 13.035156 16.324219 13.050781 C 16.351562 13.0625 16.445312 13 16.527344 12.910156 C 16.648438 12.78125 16.660156 12.746094 16.578125 12.746094 C 16.519531 12.746094 16.402344 12.78125 16.324219 12.824219 C 16.21875 12.878906 16.191406 12.878906 16.226562 12.824219 C 16.308594 12.691406 16.167969 12.746094 15.902344 12.949219 Z M 15.902344 12.949219 "/>
<path style=" stroke:none;fill-rule:nonzero;fill:rgb(0%,0%,0%);fill-opacity:1;" d="M 14.71875 12.921875 L 14.402344 13.015625 L 14.648438 13.019531 C 14.949219 13.027344 15.210938 12.964844 15.210938 12.878906 C 15.210938 12.804688 15.113281 12.808594 14.71875 12.921875 Z M 14.71875 12.921875 "/>
<path style=" stroke:none;fill-rule:nonzero;fill:rgb(0%,0%,0%);fill-opacity:1;" d="M 12.589844 13.148438 C 12.640625 13.167969 12.703125 13.160156 12.726562 13.140625 C 12.753906 13.121094 12.710938 13.097656 12.632812 13.105469 C 12.554688 13.105469 12.535156 13.125 12.589844 13.148438 Z M 12.589844 13.148438 "/>
<path style=" stroke:none;fill-rule:nonzero;fill:rgb(0%,0%,0%);fill-opacity:1;" d="M 12.816406 13.589844 C 12.816406 13.625 12.867188 13.640625 12.921875 13.621094 C 12.980469 13.589844 13.027344 13.5625 13.027344 13.550781 C 13.027344 13.535156 12.980469 13.519531 12.921875 13.519531 C 12.867188 13.519531 12.816406 13.550781 12.816406 13.589844 Z M 12.816406 13.589844 "/>
<path style=" stroke:none;fill-rule:nonzero;fill:rgb(0%,0%,0%);fill-opacity:1;" d="M 15.15625 13.832031 C 14.902344 13.980469 14.886719 14.019531 15.125 13.9375 C 15.253906 13.894531 15.375 13.832031 15.394531 13.796875 C 15.445312 13.710938 15.351562 13.726562 15.15625 13.832031 Z M 15.15625 13.832031 "/>
<path style=" stroke:none;fill-rule:nonzero;fill:rgb(0%,0%,0%);fill-opacity:1;" d="M 13.367188 13.957031 C 13.175781 14.035156 13.027344 14.125 13.027344 14.160156 C 13.027344 14.195312 13.226562 14.21875 13.472656 14.210938 L 13.910156 14.203125 L 13.554688 14.160156 L 13.203125 14.121094 L 13.4375 14.019531 C 13.5625 13.972656 13.683594 13.894531 13.703125 13.867188 C 13.753906 13.78125 13.753906 13.78125 13.367188 13.957031 Z M 13.367188 13.957031 "/>
<path style=" stroke:none;fill-rule:nonzero;fill:rgb(0%,0%,0%);fill-opacity:1;" d="M 15.054688 14.273438 C 15.097656 14.289062 15.183594 14.289062 15.230469 14.273438 C 15.273438 14.253906 15.238281 14.238281 15.140625 14.238281 C 15.042969 14.238281 15.007812 14.253906 15.054688 14.273438 Z M 15.054688 14.273438 "/>
<path style=" stroke:none;fill-rule:nonzero;fill:rgb(0%,0%,0%);fill-opacity:1;" d="M 14.796875 14.394531 C 14.851562 14.449219 16.625 14.480469 16.660156 14.421875 C 16.683594 14.394531 16.261719 14.367188 15.730469 14.367188 C 15.195312 14.367188 14.78125 14.378906 14.796875 14.394531 Z M 14.796875 14.394531 "/>
<path style=" stroke:none;fill-rule:nonzero;fill:rgb(0%,0%,0%);fill-opacity:1;" d="M 14.246094 14.484375 C 14.308594 14.5 14.421875 14.5 14.492188 14.484375 C 14.554688 14.464844 14.5 14.449219 14.367188 14.449219 C 14.230469 14.449219 14.175781 14.464844 14.246094 14.484375 Z M 14.246094 14.484375 "/>
<path style=" stroke:none;fill-rule:nonzero;fill:rgb(0%,0%,0%);fill-opacity:1;" d="M 17 14.824219 C 16.972656 14.878906 16.878906 14.929688 16.796875 14.929688 C 16.703125 14.929688 16.605469 14.957031 16.585938 15 C 16.527344 15.089844 17.113281 15.089844 17.253906 15 C 17.339844 14.945312 17.332031 14.929688 17.203125 14.929688 C 17.089844 14.929688 17.054688 14.902344 17.085938 14.824219 C 17.113281 14.769531 17.105469 14.71875 17.085938 14.71875 C 17.054688 14.71875 17.019531 14.769531 17 14.824219 Z M 17 14.824219 "/>
<path style=" stroke:none;fill-rule:nonzero;fill:rgb(0%,0%,0%);fill-opacity:1;" d="M 14.507812 6.914062 C 14.289062 7.148438 14.332031 7.421875 14.621094 7.746094 C 14.761719 7.902344 14.921875 8.027344 14.972656 8.027344 C 15.15625 8.027344 15.351562 7.753906 15.351562 7.515625 L 15.34375 7.289062 L 15.246094 7.5625 C 15.089844 8.007812 15.019531 8.027344 14.746094 7.730469 C 14.5 7.457031 14.449219 7.273438 14.578125 7.035156 C 14.683594 6.84375 14.894531 6.867188 15.105469 7.089844 C 15.203125 7.195312 15.28125 7.246094 15.28125 7.195312 C 15.28125 7.054688 14.949219 6.761719 14.796875 6.761719 C 14.71875 6.761719 14.589844 6.832031 14.507812 6.914062 Z M 14.507812 6.914062 "/>
<path style=" stroke:none;fill-rule:nonzero;fill:rgb(0%,0%,0%);fill-opacity:1;" d="M 14.753906 7.316406 C 14.695312 7.421875 14.773438 7.535156 14.902344 7.535156 C 14.964844 7.535156 15 7.484375 14.984375 7.414062 C 14.957031 7.273438 14.816406 7.21875 14.753906 7.316406 Z M 14.753906 7.316406 "/>
<path style=" stroke:none;fill-rule:nonzero;fill:rgb(0%,0%,0%);fill-opacity:1;" d="M 29.421875 14.070312 C 29.351562 14.085938 29.296875 14.125 29.296875 14.160156 C 29.296875 14.238281 29.375 14.238281 29.507812 14.15625 C 29.632812 14.078125 29.585938 14.027344 29.421875 14.070312 Z M 29.421875 14.070312 "/>
<path style=" stroke:none;fill-rule:nonzero;fill:rgb(0%,0%,0%);fill-opacity:1;" d="M 29.203125 14.410156 C 29.097656 14.515625 29.160156 14.632812 29.296875 14.597656 C 29.378906 14.578125 29.429688 14.527344 29.414062 14.484375 C 29.386719 14.386719 29.269531 14.351562 29.203125 14.410156 Z M 29.203125 14.410156 "/>
<path style=" stroke:none;fill-rule:nonzero;fill:rgb(0%,0%,0%);fill-opacity:1;" d="M 10.808594 18.027344 C 10.738281 18.105469 10.710938 18.167969 10.753906 18.167969 C 10.789062 18.167969 10.878906 18.105469 10.949219 18.027344 C 11.019531 17.949219 11.050781 17.886719 11.007812 17.886719 C 10.972656 17.886719 10.878906 17.949219 10.808594 18.027344 Z M 10.808594 18.027344 "/>
</g>
</svg>
